{
	"asset":{
		"generator":"Khronos glTF Blender I/O v5.0.21",
		"version":"2.0"
	},
	"scene":0,
	"scenes":[
		{
			"name":"Scene",
			"nodes":[
				8
			]
		}
	],
	"nodes":[
		{
			"mesh":0,
			"name":"Object_2"
		},
		{
			"mesh":1,
			"name":"Object_3"
		},
		{
			"mesh":2,
			"name":"Object_4"
		},
		{
			"mesh":3,
			"name":"Object_5"
		},
		{
			"mesh":4,
			"name":"Object_6"
		},
		{
			"mesh":5,
			"name":"Object_7"
		},
		{
			"mesh":6,
			"name":"Object_8"
		},
		{
			"children":[
				0,
				1,
				2,
				3,
				4,
				5,
				6
			],
			"name":"RetroHairDryer01.obj.cleaner.materialmerger.gles"
		},
		{
			"children":[
				7
			],
			"name":"Sketchfab_model",
			"rotation":[
				-0.70710688829422,
				0,
				0,
				0.7071066498756409
			]
		}
	],
	"materials":[
		{
			"doubleSided":true,
			"name":"RetroHairDryer_Material01",
			"normalTexture":{
				"index":0
			},
			"pbrMetallicRoughness":{
				"baseColorTexture":{
					"index":1
				},
				"metallicRoughnessTexture":{
					"index":2
				}
			}
		},
		{
			"doubleSided":true,
			"name":"RetroHairDryer_Material02",
			"normalTexture":{
				"index":3
			},
			"pbrMetallicRoughness":{
				"baseColorTexture":{
					"index":4
				},
				"metallicRoughnessTexture":{
					"index":5
				}
			}
		},
		{
			"doubleSided":true,
			"name":"RetroHairDryer_Material03",
			"normalTexture":{
				"index":6
			},
			"pbrMetallicRoughness":{
				"baseColorTexture":{
					"index":7
				},
				"metallicRoughnessTexture":{
					"index":8
				}
			}
		},
		{
			"doubleSided":true,
			"name":"RetroHairDryer_Material04",
			"normalTexture":{
				"index":9
			},
			"pbrMetallicRoughness":{
				"baseColorTexture":{
					"index":10
				},
				"metallicRoughnessTexture":{
					"index":11
				}
			}
		},
		{
			"doubleSided":true,
			"name":"RetroHairDryer_Material05",
			"normalTexture":{
				"index":12
			},
			"pbrMetallicRoughness":{
				"baseColorTexture":{
					"index":13
				},
				"metallicRoughnessTexture":{
					"index":14
				}
			}
		},
		{
			"doubleSided":true,
			"name":"RetroHairDryer_Material06",
			"pbrMetallicRoughness":{
				"baseColorTexture":{
					"index":15
				},
				"metallicRoughnessTexture":{
					"index":16
				}
			}
		},
		{
			"doubleSided":true,
			"name":"RetroHairDryer_Material07",
			"normalTexture":{
				"index":17
			},
			"pbrMetallicRoughness":{
				"baseColorTexture":{
					"index":18
				},
				"metallicRoughnessTexture":{
					"index":19
				}
			}
		}
	],
	"meshes":[
		{
			"name":"Object_0",
			"primitives":[
				{
					"attributes":{
						"POSITION":0,
						"NORMAL":1,
						"TEXCOORD_0":2
					},
					"indices":3,
					"material":0
				}
			]
		},
		{
			"name":"Object_1",
			"primitives":[
				{
					"attributes":{
						"POSITION":4,
						"NORMAL":5,
						"TEXCOORD_0":6
					},
					"indices":7,
					"material":1
				}
			]
		},
		{
			"name":"Object_2",
			"primitives":[
				{
					"attributes":{
						"POSITION":8,
						"NORMAL":9,
						"TEXCOORD_0":10
					},
					"indices":11,
					"material":2
				}
			]
		},
		{
			"name":"Object_3",
			"primitives":[
				{
					"attributes":{
						"POSITION":12,
						"NORMAL":13,
						"TEXCOORD_0":14
					},
					"indices":15,
					"material":3
				}
			]
		},
		{
			"name":"Object_4",
			"primitives":[
				{
					"attributes":{
						"POSITION":16,
						"NORMAL":17,
						"TEXCOORD_0":18
					},
					"indices":19,
					"material":4
				}
			]
		},
		{
			"name":"Object_5",
			"primitives":[
				{
					"attributes":{
						"POSITION":20,
						"NORMAL":21,
						"TEXCOORD_0":22
					},
					"indices":23,
					"material":5
				}
			]
		},
		{
			"name":"Object_6",
			"primitives":[
				{
					"attributes":{
						"POSITION":24,
						"NORMAL":25,
						"TEXCOORD_0":26
					},
					"indices":27,
					"material":6
				}
			]
		}
	],
	"textures":[
		{
			"sampler":0,
			"source":0
		},
		{
			"sampler":0,
			"source":1
		},
		{
			"sampler":0,
			"source":2
		},
		{
			"sampler":0,
			"source":3
		},
		{
			"sampler":0,
			"source":4
		},
		{
			"sampler":0,
			"source":5
		},
		{
			"sampler":0,
			"source":6
		},
		{
			"sampler":0,
			"source":7
		},
		{
			"sampler":0,
			"source":8
		},
		{
			"sampler":0,
			"source":9
		},
		{
			"sampler":0,
			"source":10
		},
		{
			"sampler":0,
			"source":11
		},
		{
			"sampler":0,
			"source":12
		},
		{
			"sampler":0,
			"source":13
		},
		{
			"sampler":0,
			"source":14
		},
		{
			"sampler":0,
			"source":15
		},
		{
			"sampler":0,
			"source":16
		},
		{
			"sampler":0,
			"source":17
		},
		{
			"sampler":0,
			"source":18
		},
		{
			"sampler":0,
			"source":19
		}
	],
	"images":[
		{
			"mimeType":"image/png",
			"name":"Image_2",
			"uri":"Image_2.png"
		},
		{
			"mimeType":"image/png",
			"name":"Image_0",
			"uri":"Image_0.png"
		},
		{
			"mimeType":"image/png",
			"name":"Image_1",
			"uri":"Image_1.png"
		},
		{
			"mimeType":"image/png",
			"name":"Image_5",
			"uri":"Image_5.png"
		},
		{
			"mimeType":"image/png",
			"name":"Image_3",
			"uri":"Image_3.png"
		},
		{
			"mimeType":"image/png",
			"name":"Image_4",
			"uri":"Image_4.png"
		},
		{
			"mimeType":"image/png",
			"name":"Image_8",
			"uri":"Image_8.png"
		},
		{
			"mimeType":"image/png",
			"name":"Image_6",
			"uri":"Image_6.png"
		},
		{
			"mimeType":"image/png",
			"name":"Image_7",
			"uri":"Image_7.png"
		},
		{
			"mimeType":"image/png",
			"name":"Image_11",
			"uri":"Image_11.png"
		},
		{
			"mimeType":"image/png",
			"name":"Image_9",
			"uri":"Image_9.png"
		},
		{
			"mimeType":"image/png",
			"name":"Image_10",
			"uri":"Image_10.png"
		},
		{
			"mimeType":"image/png",
			"name":"Image_14",
			"uri":"Image_14.png"
		},
		{
			"mimeType":"image/png",
			"name":"Image_12",
			"uri":"Image_12.png"
		},
		{
			"mimeType":"image/png",
			"name":"Image_13",
			"uri":"Image_13.png"
		},
		{
			"mimeType":"image/png",
			"name":"Image_15",
			"uri":"Image_15.png"
		},
		{
			"mimeType":"image/png",
			"name":"Image_16",
			"uri":"Image_16.png"
		},
		{
			"mimeType":"image/png",
			"name":"Image_19",
			"uri":"Image_19.png"
		},
		{
			"mimeType":"image/png",
			"name":"Image_17",
			"uri":"Image_17.png"
		},
		{
			"mimeType":"image/png",
			"name":"Image_18",
			"uri":"Image_18.png"
		}
	],
	"accessors":[
		{
			"bufferView":0,
			"componentType":5126,
			"count":31328,
			"max":[
				51.58522033691406,
				26.178688049316406,
				118.19343566894531
			],
			"min":[
				-99.79247283935547,
				-23.677215576171875,
				-79.53364562988281
			],
			"type":"VEC3"
		},
		{
			"bufferView":1,
			"componentType":5126,
			"count":31328,
			"type":"VEC3"
		},
		{
			"bufferView":2,
			"componentType":5126,
			"count":31328,
			"type":"VEC2"
		},
		{
			"bufferView":3,
			"componentType":5123,
			"count":105570,
			"type":"SCALAR"
		},
		{
			"bufferView":4,
			"componentType":5126,
			"count":5279,
			"max":[
				97.88404846191406,
				3.2614519596099854,
				118.34498596191406
			],
			"min":[
				-20.4609375,
				-32.27958679199219,
				-95.65849304199219
			],
			"type":"VEC3"
		},
		{
			"bufferView":5,
			"componentType":5126,
			"count":5279,
			"type":"VEC3"
		},
		{
			"bufferView":6,
			"componentType":5126,
			"count":5279,
			"type":"VEC2"
		},
		{
			"bufferView":7,
			"componentType":5123,
			"count":26646,
			"type":"SCALAR"
		},
		{
			"bufferView":8,
			"componentType":5126,
			"count":12776,
			"max":[
				85.7374038696289,
				-30.87125015258789,
				105.64132690429688
			],
			"min":[
				9.460643768310547,
				-44.36083221435547,
				29.364578247070312
			],
			"type":"VEC3"
		},
		{
			"bufferView":9,
			"componentType":5126,
			"count":12776,
			"type":"VEC3"
		},
		{
			"bufferView":10,
			"componentType":5126,
			"count":12776,
			"type":"VEC2"
		},
		{
			"bufferView":11,
			"componentType":5123,
			"count":68664,
			"type":"SCALAR"
		},
		{
			"bufferView":12,
			"componentType":5126,
			"count":6088,
			"max":[
				97.88404846191406,
				34.7095947265625,
				118.344970703125
			],
			"min":[
				-20.4609375,
				-6.985158920288086,
				-95.65849304199219
			],
			"type":"VEC3"
		},
		{
			"bufferView":13,
			"componentType":5126,
			"count":6088,
			"type":"VEC3"
		},
		{
			"bufferView":14,
			"componentType":5126,
			"count":6088,
			"type":"VEC2"
		},
		{
			"bufferView":15,
			"componentType":5123,
			"count":32052,
			"type":"SCALAR"
		},
		{
			"bufferView":16,
			"componentType":5126,
			"count":1942,
			"max":[
				52.96617126464844,
				6.905779838562012,
				-91.30165100097656
			],
			"min":[
				8.514387130737305,
				-4.2524027824401855,
				-153.97056579589844
			],
			"type":"VEC3"
		},
		{
			"bufferView":17,
			"componentType":5126,
			"count":1942,
			"type":"VEC3"
		},
		{
			"bufferView":18,
			"componentType":5126,
			"count":1942,
			"type":"VEC2"
		},
		{
			"bufferView":19,
			"componentType":5123,
			"count":8328,
			"type":"SCALAR"
		},
		{
			"bufferView":20,
			"componentType":5126,
			"count":599,
			"max":[
				81.94470977783203,
				34.39598083496094,
				116.14759826660156
			],
			"min":[
				-98.54149627685547,
				-31.46698760986328,
				-19.3400821685791
			],
			"type":"VEC3"
		},
		{
			"bufferView":21,
			"componentType":5126,
			"count":599,
			"type":"VEC3"
		},
		{
			"bufferView":22,
			"componentType":5126,
			"count":599,
			"type":"VEC2"
		},
		{
			"bufferView":23,
			"componentType":5123,
			"count":3270,
			"type":"SCALAR"
		},
		{
			"bufferView":24,
			"componentType":5126,
			"count":12764,
			"max":[
				85.7374038696289,
				46.734161376953125,
				105.64132690429688
			],
			"min":[
				9.460643768310547,
				33.24457550048828,
				29.364578247070312
			],
			"type":"VEC3"
		},
		{
			"bufferView":25,
			"componentType":5126,
			"count":12764,
			"type":"VEC3"
		},
		{
			"bufferView":26,
			"componentType":5126,
			"count":12764,
			"type":"VEC2"
		},
		{
			"bufferView":27,
			"componentType":5123,
			"count":68664,
			"type":"SCALAR"
		}
	],
	"bufferViews":[
		{
			"buffer":0,
			"byteLength":375936,
			"byteOffset":0,
			"target":34962
		},
		{
			"buffer":0,
			"byteLength":375936,
			"byteOffset":375936,
			"target":34962
		},
		{
			"buffer":0,
			"byteLength":250624,
			"byteOffset":751872,
			"target":34962
		},
		{
			"buffer":0,
			"byteLength":211140,
			"byteOffset":1002496,
			"target":34963
		},
		{
			"buffer":0,
			"byteLength":63348,
			"byteOffset":1213636,
			"target":34962
		},
		{
			"buffer":0,
			"byteLength":63348,
			"byteOffset":1276984,
			"target":34962
		},
		{
			"buffer":0,
			"byteLength":42232,
			"byteOffset":1340332,
			"target":34962
		},
		{
			"buffer":0,
			"byteLength":53292,
			"byteOffset":1382564,
			"target":34963
		},
		{
			"buffer":0,
			"byteLength":153312,
			"byteOffset":1435856,
			"target":34962
		},
		{
			"buffer":0,
			"byteLength":153312,
			"byteOffset":1589168,
			"target":34962
		},
		{
			"buffer":0,
			"byteLength":102208,
			"byteOffset":1742480,
			"target":34962
		},
		{
			"buffer":0,
			"byteLength":137328,
			"byteOffset":1844688,
			"target":34963
		},
		{
			"buffer":0,
			"byteLength":73056,
			"byteOffset":1982016,
			"target":34962
		},
		{
			"buffer":0,
			"byteLength":73056,
			"byteOffset":2055072,
			"target":34962
		},
		{
			"buffer":0,
			"byteLength":48704,
			"byteOffset":2128128,
			"target":34962
		},
		{
			"buffer":0,
			"byteLength":64104,
			"byteOffset":2176832,
			"target":34963
		},
		{
			"buffer":0,
			"byteLength":23304,
			"byteOffset":2240936,
			"target":34962
		},
		{
			"buffer":0,
			"byteLength":23304,
			"byteOffset":2264240,
			"target":34962
		},
		{
			"buffer":0,
			"byteLength":15536,
			"byteOffset":2287544,
			"target":34962
		},
		{
			"buffer":0,
			"byteLength":16656,
			"byteOffset":2303080,
			"target":34963
		},
		{
			"buffer":0,
			"byteLength":7188,
			"byteOffset":2319736,
			"target":34962
		},
		{
			"buffer":0,
			"byteLength":7188,
			"byteOffset":2326924,
			"target":34962
		},
		{
			"buffer":0,
			"byteLength":4792,
			"byteOffset":2334112,
			"target":34962
		},
		{
			"buffer":0,
			"byteLength":6540,
			"byteOffset":2338904,
			"target":34963
		},
		{
			"buffer":0,
			"byteLength":153168,
			"byteOffset":2345444,
			"target":34962
		},
		{
			"buffer":0,
			"byteLength":153168,
			"byteOffset":2498612,
			"target":34962
		},
		{
			"buffer":0,
			"byteLength":102112,
			"byteOffset":2651780,
			"target":34962
		},
		{
			"buffer":0,
			"byteLength":137328,
			"byteOffset":2753892,
			"target":34963
		}
	],
	"samplers":[
		{
			"magFilter":9729,
			"minFilter":9987
		}
	],
	"buffers":[
		{
			"byteLength":2891220,
			"uri":"Untitled.bin"
		}
	]
}
